<svg width="64" height="64" viewBox="0 0 64 64" fill="none" xmlns="http://www.w3.org/2000/svg" preserveAspectRatio="xMidYMid meet">
<path fill-rule="evenodd" clip-rule="evenodd" d="M34.6637 0H29.3303V5.3335H23.9974V10.6665H18.6646V15.9998H23.9979V10.6668H29.3303V29.3335H-0.00256348V34.6668H5.33032V39.9998H10.6637V34.6668H29.3303V53.3335H23.9974V58.6668H29.3303V64H34.6637V34.6668H53.3303V39.9998H58.6637V34.6668H63.9974V29.3335H34.6637V0ZM34.6646 5.3335H39.9979V10.6665H45.3308V15.9998H39.9974V10.6668H34.6646V5.3335ZM10.6646 18.6665H15.9979V23.9998H10.6646V18.6665ZM10.6637 24H5.33034V29.3333H10.6637V24ZM15.9979 40H10.6645V45.3333H15.9979V40ZM18.6645 48H23.9979V53.3333H18.6645V48ZM34.6646 53.3335H39.9979V58.6668H34.6646V53.3335ZM45.3308 48H39.9974V53.3333H45.3308V48ZM47.9974 40H53.3308V45.3333H47.9974V40ZM53.3303 24H58.6637V29.3333H53.3303V24ZM53.3308 18.6665H47.9974V23.9998H53.3308V18.6665Z" fill="black"/>
</svg>
