<svg width="64" height="64" viewBox="0 0 64 64" fill="none" xmlns="http://www.w3.org/2000/svg">
<path fill-rule="evenodd" clip-rule="evenodd" d="M38.3967 0H25.5967V6.39941H19.1969V12.7994H25.5969V6.4H38.3967V0ZM19.1967 12.8003H12.7967V19.1997H6.397V25.5997H12.797V19.2003H19.1967V12.8003ZM6.39683 25.6006H-0.00317383V32.0006H6.39683V25.6006ZM12.797 57.6V32H6.397V64H28.797V44.8H35.197V64H57.597V32.0006H63.9967V25.6006H57.5967V32H51.197V57.6H41.597V38.4H22.397V57.6H12.797ZM44.797 6.39941H38.397V12.7994H44.797V6.39941ZM44.7967 12.8003H51.1967V19.2003H44.7967V12.8003ZM57.5969 19.1997H51.1969V25.5997H57.5969V19.1997Z" fill="black"/>
</svg>
