<?xml version="1.0" encoding="UTF-8"?>
<!DOCTYPE svg PUBLIC "-//W3C//DTD SVG 1.1//EN" "http://www.w3.org/Graphics/SVG/1.1/DTD/svg11.dtd">
 <svg xmlns="http://www.w3.org/2000/svg" viewBox="0 0 512 512" fill="none" preserveAspectRatio="xMidYMid meet" width="35" height="35">
<g><path style="opacity:0.941" fill="#000000" d="M 239.5,-0.5 C 250.167,-0.5 260.833,-0.5 271.5,-0.5C 271.5,9.5 271.5,19.5 271.5,29.5C 281.5,29.5 291.5,29.5 301.5,29.5C 301.5,39.5 301.5,49.5 301.5,59.5C 301.167,59.5 300.833,59.5 300.5,59.5C 290.5,59.5 280.5,59.5 270.5,59.5C 270.5,49.5 270.5,39.5 270.5,29.5C 260.5,29.5 250.5,29.5 240.5,29.5C 240.5,39.5 240.5,49.5 240.5,59.5C 230.5,59.5 220.5,59.5 210.5,59.5C 210.167,59.5 209.833,59.5 209.5,59.5C 209.5,49.5 209.5,39.5 209.5,29.5C 219.5,29.5 229.5,29.5 239.5,29.5C 239.5,19.5 239.5,9.5 239.5,-0.5 Z"/></g>
<g><path style="opacity:0.957" fill="#fec905" d="M 119.5,29.5 C 129.833,29.5 140.167,29.5 150.5,29.5C 150.5,39.8333 150.5,50.1667 150.5,60.5C 140.167,60.5 129.833,60.5 119.5,60.5C 119.5,50.1667 119.5,39.8333 119.5,29.5 Z"/></g>
<g><path style="opacity:0.957" fill="#fec905" d="M 360.5,29.5 C 370.833,29.5 381.167,29.5 391.5,29.5C 391.5,39.8333 391.5,50.1667 391.5,60.5C 381.167,60.5 370.833,60.5 360.5,60.5C 360.5,50.1667 360.5,39.8333 360.5,29.5 Z"/></g>
<g><path style="opacity:1" fill="#bc4798" d="M 270.5,59.5 C 260.5,59.5 250.5,59.5 240.5,59.5C 240.5,49.5 240.5,39.5 240.5,29.5C 250.5,29.5 260.5,29.5 270.5,29.5C 270.5,39.5 270.5,49.5 270.5,59.5 Z"/></g>
<g><path style="opacity:0.949" fill="#000000" d="M 209.5,59.5 C 209.5,69.8333 209.5,80.1667 209.5,90.5C 199.5,90.5 189.5,90.5 179.5,90.5C 179.5,80.1667 179.5,69.8333 179.5,59.5C 189.5,59.5 199.5,59.5 209.5,59.5 Z"/></g>
<g><path style="opacity:0.994" fill="#361a24" d="M 209.5,59.5 C 209.833,59.5 210.167,59.5 210.5,59.5C 210.5,69.5 210.5,79.5 210.5,89.5C 220.5,89.5 230.5,89.5 240.5,89.5C 240.5,89.8333 240.5,90.1667 240.5,90.5C 230.167,90.5 219.833,90.5 209.5,90.5C 209.5,80.1667 209.5,69.8333 209.5,59.5 Z"/></g>
<g><path style="opacity:0.949" fill="#000000" d="M 301.5,59.5 C 311.5,59.5 321.5,59.5 331.5,59.5C 331.5,69.8333 331.5,80.1667 331.5,90.5C 321.5,90.5 311.5,90.5 301.5,90.5C 301.5,80.1667 301.5,69.8333 301.5,59.5 Z"/></g>
<g><path style="opacity:1" fill="#ea7098" d="M 210.5,59.5 C 220.5,59.5 230.5,59.5 240.5,59.5C 250.5,59.5 260.5,59.5 270.5,59.5C 270.5,69.5 270.5,79.5 270.5,89.5C 260.5,89.5 250.5,89.5 240.5,89.5C 230.5,89.5 220.5,89.5 210.5,89.5C 210.5,79.5 210.5,69.5 210.5,59.5 Z"/></g>
<g><path style="opacity:1" fill="#bc4798" d="M 270.5,59.5 C 280.5,59.5 290.5,59.5 300.5,59.5C 300.5,69.5 300.5,79.5 300.5,89.5C 290.5,89.5 280.5,89.5 270.5,89.5C 270.5,79.5 270.5,69.5 270.5,59.5 Z"/></g>
<g><path style="opacity:1" fill="#54233e" d="M 300.5,59.5 C 300.833,59.5 301.167,59.5 301.5,59.5C 301.5,69.8333 301.5,80.1667 301.5,90.5C 291.167,90.5 280.833,90.5 270.5,90.5C 270.5,90.1667 270.5,89.8333 270.5,89.5C 280.5,89.5 290.5,89.5 300.5,89.5C 300.5,79.5 300.5,69.5 300.5,59.5 Z"/></g>
<g><path style="opacity:0.96" fill="#000000" d="M 90.5,119.5 C 90.1667,119.5 89.8333,119.5 89.5,119.5C 79.5,119.5 69.5,119.5 59.5,119.5C 59.5,109.5 59.5,99.5 59.5,89.5C 69.8333,89.5 80.1667,89.5 90.5,89.5C 90.5,99.5 90.5,109.5 90.5,119.5 Z"/></g>
<g><path style="opacity:0.96" fill="#000000" d="M 451.5,119.5 C 441.5,119.5 431.5,119.5 421.5,119.5C 421.167,119.5 420.833,119.5 420.5,119.5C 420.5,109.5 420.5,99.5 420.5,89.5C 430.833,89.5 441.167,89.5 451.5,89.5C 451.5,99.5 451.5,109.5 451.5,119.5 Z"/></g>
<g><path style="opacity:1" fill="#bb4797" d="M 240.5,89.5 C 250.5,89.5 260.5,89.5 270.5,89.5C 270.5,89.8333 270.5,90.1667 270.5,90.5C 270.5,100.5 270.5,110.5 270.5,120.5C 260.5,120.5 250.5,120.5 240.5,120.5C 240.5,110.5 240.5,100.5 240.5,90.5C 240.5,90.1667 240.5,89.8333 240.5,89.5 Z"/></g>
<g><path style="opacity:0.981" fill="#010304" d="M 59.5,119.5 C 59.5,129.833 59.5,140.167 59.5,150.5C 49.5,150.5 39.5,150.5 29.5,150.5C 29.5,150.167 29.5,149.833 29.5,149.5C 29.5,139.5 29.5,129.5 29.5,119.5C 39.5,119.5 49.5,119.5 59.5,119.5 Z"/></g>
<g><path style="opacity:0.967" fill="#000000" d="M 90.5,119.5 C 100.5,119.5 110.5,119.5 120.5,119.5C 120.5,129.5 120.5,139.5 120.5,149.5C 120.5,139.5 120.5,129.5 120.5,119.5C 110.5,119.5 100.5,119.5 90.5,119.5 Z"/></g>
<g><path style="opacity:0.967" fill="#000000" d="M 420.5,119.5 C 420.5,129.5 420.5,139.5 420.5,149.5C 410.5,149.5 400.5,149.5 390.5,149.5C 390.5,139.5 390.5,129.5 390.5,119.5C 400.5,119.5 410.5,119.5 420.5,119.5 Z"/></g>
<g><path style="opacity:0.981" fill="#000000" d="M 451.5,119.5 C 461.5,119.5 471.5,119.5 481.5,119.5C 481.5,129.5 481.5,139.5 481.5,149.5C 481.5,139.5 481.5,129.5 481.5,119.5C 471.5,119.5 461.5,119.5 451.5,119.5 Z"/></g>
<g><path style="opacity:1" fill="#0c74c8" d="M 59.5,119.5 C 69.5,119.5 79.5,119.5 89.5,119.5C 89.5,129.833 89.5,140.167 89.5,150.5C 79.5,150.5 69.5,150.5 59.5,150.5C 59.5,140.167 59.5,129.833 59.5,119.5 Z"/></g>
<g><path style="opacity:0.928" fill="#000000" d="M 209.5,90.5 C 219.833,90.5 230.167,90.5 240.5,90.5C 240.5,100.5 240.5,110.5 240.5,120.5C 250.5,120.5 260.5,120.5 270.5,120.5C 270.5,110.5 270.5,100.5 270.5,90.5C 280.833,90.5 291.167,90.5 301.5,90.5C 301.5,100.5 301.5,110.5 301.5,120.5C 291.5,120.5 281.5,120.5 271.5,120.5C 271.5,130.5 271.5,140.5 271.5,150.5C 260.833,150.5 250.167,150.5 239.5,150.5C 239.5,140.5 239.5,130.5 239.5,120.5C 229.5,120.5 219.5,120.5 209.5,120.5C 209.5,110.5 209.5,100.5 209.5,90.5 Z"/></g>
<g><path style="opacity:1" fill="#0d73c9" d="M 421.5,120.5 C 431.167,120.5 440.833,120.5 450.5,120.5C 450.5,130.167 450.5,139.833 450.5,149.5C 440.833,149.5 431.167,149.5 421.5,149.5C 421.5,139.833 421.5,130.167 421.5,120.5 Z"/></g>
<g><path style="opacity:1" fill="#0871b3" d="M 421.5,120.5 C 421.5,120.167 421.5,119.833 421.5,119.5C 431.5,119.5 441.5,119.5 451.5,119.5C 451.5,129.5 451.5,139.5 451.5,149.5C 461.5,149.5 471.5,149.5 481.5,149.5C 481.5,149.833 481.5,150.167 481.5,150.5C 471.5,150.5 461.5,150.5 451.5,150.5C 441.5,150.5 431.5,150.5 421.5,150.5C 421.5,150.167 421.5,149.833 421.5,149.5C 431.167,149.5 440.833,149.5 450.5,149.5C 450.5,139.833 450.5,130.167 450.5,120.5C 440.833,120.5 431.167,120.5 421.5,120.5 Z"/></g>
<g><path style="opacity:0.972" fill="#000000" d="M -0.5,149.5 C 9.5,149.5 19.5,149.5 29.5,149.5C 29.5,149.833 29.5,150.167 29.5,150.5C 29.5,160.5 29.5,170.5 29.5,180.5C 19.5,180.5 9.5,180.5 -0.5,180.5C -0.5,170.167 -0.5,159.833 -0.5,149.5 Z"/></g>
<g><path style="opacity:0.959" fill="#000000" d="M 120.5,149.5 C 130.5,149.5 140.5,149.5 150.5,149.5C 150.5,159.833 150.5,170.167 150.5,180.5C 140.5,180.5 130.5,180.5 120.5,180.5C 120.5,170.167 120.5,159.833 120.5,149.5 Z"/></g>
<g><path style="opacity:0.946" fill="#53459b" d="M 179.5,149.5 C 189.833,149.5 200.167,149.5 210.5,149.5C 210.5,159.833 210.5,170.167 210.5,180.5C 200.167,180.5 189.833,180.5 179.5,180.5C 179.5,170.167 179.5,159.833 179.5,149.5 Z"/></g>
<g><path style="opacity:0.946" fill="#53459b" d="M 300.5,149.5 C 310.833,149.5 321.167,149.5 331.5,149.5C 331.5,159.833 331.5,170.167 331.5,180.5C 321.167,180.5 310.833,180.5 300.5,180.5C 300.5,170.167 300.5,159.833 300.5,149.5 Z"/></g>
<g><path style="opacity:0.959" fill="#000000" d="M 390.5,149.5 C 390.5,159.833 390.5,170.167 390.5,180.5C 380.5,180.5 370.5,180.5 360.5,180.5C 360.5,170.167 360.5,159.833 360.5,149.5C 370.5,149.5 380.5,149.5 390.5,149.5 Z"/></g>
<g><path style="opacity:0.972" fill="#000000" d="M 481.5,149.5 C 491.5,149.5 501.5,149.5 511.5,149.5C 511.5,159.833 511.5,170.167 511.5,180.5C 501.5,180.5 491.5,180.5 481.5,180.5C 481.5,170.5 481.5,160.5 481.5,150.5C 481.5,150.167 481.5,149.833 481.5,149.5 Z"/></g>
<g><path style="opacity:1" fill="#04a4dd" d="M 29.5,150.5 C 39.5,150.5 49.5,150.5 59.5,150.5C 69.5,150.5 79.5,150.5 89.5,150.5C 89.5,160.5 89.5,170.5 89.5,180.5C 79.5,180.5 69.5,180.5 59.5,180.5C 49.5,180.5 39.5,180.5 29.5,180.5C 29.5,170.5 29.5,160.5 29.5,150.5 Z"/></g>
<g><path style="opacity:1" fill="#014c6a" d="M 420.5,119.5 C 420.833,119.5 421.167,119.5 421.5,119.5C 421.5,119.833 421.5,120.167 421.5,120.5C 421.5,130.167 421.5,139.833 421.5,149.5C 421.5,149.833 421.5,150.167 421.5,150.5C 411.5,150.5 401.5,150.5 391.5,150.5C 391.5,160.5 391.5,170.5 391.5,180.5C 391.167,180.5 390.833,180.5 390.5,180.5C 390.5,170.167 390.5,159.833 390.5,149.5C 400.5,149.5 410.5,149.5 420.5,149.5C 420.5,139.5 420.5,129.5 420.5,119.5 Z"/></g>
<g><path style="opacity:1" fill="#00a6df" d="M 421.5,150.5 C 431.5,150.5 441.5,150.5 451.5,150.5C 451.5,160.5 451.5,170.5 451.5,180.5C 441.167,180.5 430.833,180.5 420.5,180.5C 410.833,180.5 401.167,180.5 391.5,180.5C 391.5,170.5 391.5,160.5 391.5,150.5C 401.5,150.5 411.5,150.5 421.5,150.5 Z"/></g>
<g><path style="opacity:1" fill="#0c74c8" d="M 451.5,150.5 C 461.5,150.5 471.5,150.5 481.5,150.5C 481.5,160.5 481.5,170.5 481.5,180.5C 471.5,180.5 461.5,180.5 451.5,180.5C 451.5,170.5 451.5,160.5 451.5,150.5 Z"/></g>
<g><path style="opacity:1" fill="#0867a2" d="M 89.5,119.5 C 89.8333,119.5 90.1667,119.5 90.5,119.5C 90.5,129.5 90.5,139.5 90.5,149.5C 100.5,149.5 110.5,149.5 120.5,149.5C 120.5,159.833 120.5,170.167 120.5,180.5C 110.5,180.5 100.5,180.5 90.5,180.5C 90.5,190.5 90.5,200.5 90.5,210.5C 90.1667,210.5 89.8333,210.5 89.5,210.5C 89.5,200.5 89.5,190.5 89.5,180.5C 89.5,170.5 89.5,160.5 89.5,150.5C 89.5,140.167 89.5,129.833 89.5,119.5 Z"/></g>
<g><path style="opacity:1" fill="#0d73c9" d="M 90.5,150.5 C 100.167,150.5 109.833,150.5 119.5,150.5C 119.5,160.167 119.5,169.833 119.5,179.5C 109.833,179.5 100.167,179.5 90.5,179.5C 90.5,169.833 90.5,160.167 90.5,150.5 Z"/></g>
<g><path style="opacity:0.919" fill="#030200" d="M 301.5,239.5 C 301.828,250.014 301.494,260.347 300.5,270.5C 300.5,260.5 300.5,250.5 300.5,240.5C 290.5,240.5 280.5,240.5 270.5,240.5C 270.5,230.5 270.5,220.5 270.5,210.5C 260.347,209.506 250.014,209.172 239.5,209.5C 239.5,199.5 239.5,189.5 239.5,179.5C 250.167,179.5 260.833,179.5 271.5,179.5C 271.5,189.5 271.5,199.5 271.5,209.5C 281.5,209.5 291.5,209.5 301.5,209.5C 301.5,219.5 301.5,229.5 301.5,239.5 Z"/></g>
<g><path style="opacity:0.99" fill="#000000" d="M 29.5,180.5 C 39.5,180.5 49.5,180.5 59.5,180.5C 59.5,190.5 59.5,200.5 59.5,210.5C 49.5,210.5 39.5,210.5 29.5,210.5C 29.5,200.5 29.5,190.5 29.5,180.5 Z"/></g>
<g><path style="opacity:1" fill="#0c74c8" d="M 59.5,180.5 C 69.5,180.5 79.5,180.5 89.5,180.5C 89.5,190.5 89.5,200.5 89.5,210.5C 79.5,210.5 69.5,210.5 59.5,210.5C 59.5,200.5 59.5,190.5 59.5,180.5 Z"/></g>
<g><path style="opacity:0.977" fill="#000000" d="M 120.5,180.5 C 120.5,190.5 120.5,200.5 120.5,210.5C 110.5,210.5 100.5,210.5 90.5,210.5C 90.5,200.5 90.5,190.5 90.5,180.5C 100.5,180.5 110.5,180.5 120.5,180.5 Z"/></g>
<g><path style="opacity:0.977" fill="#000000" d="M 390.5,180.5 C 390.833,180.5 391.167,180.5 391.5,180.5C 401.167,180.5 410.833,180.5 420.5,180.5C 420.5,190.5 420.5,200.5 420.5,210.5C 410.5,210.5 400.5,210.5 390.5,210.5C 390.5,200.5 390.5,190.5 390.5,180.5 Z"/></g>
<g><path style="opacity:1" fill="#0c73c6" d="M 420.5,180.5 C 430.833,180.5 441.167,180.5 451.5,180.5C 451.5,190.5 451.5,200.5 451.5,210.5C 441.167,210.5 430.833,210.5 420.5,210.5C 420.5,200.5 420.5,190.5 420.5,180.5 Z"/></g>
<g><path style="opacity:0.99" fill="#000000" d="M 451.5,180.5 C 461.5,180.5 471.5,180.5 481.5,180.5C 481.5,190.5 481.5,200.5 481.5,210.5C 471.5,210.5 461.5,210.5 451.5,210.5C 451.5,200.5 451.5,190.5 451.5,180.5 Z"/></g>
<g><path style="opacity:0.946" fill="#000000" d="M 239.5,209.5 C 239.5,219.5 239.5,229.5 239.5,239.5C 229.5,239.5 219.5,239.5 209.5,239.5C 209.5,229.5 209.5,219.5 209.5,209.5C 219.5,209.5 229.5,209.5 239.5,209.5 Z"/></g>
<g><path style="opacity:0.97" fill="#000000" d="M 59.5,210.5 C 69.5,210.5 79.5,210.5 89.5,210.5C 89.8333,210.5 90.1667,210.5 90.5,210.5C 90.5,220.5 90.5,230.5 90.5,240.5C 80.1667,240.5 69.8333,240.5 59.5,240.5C 59.5,230.5 59.5,220.5 59.5,210.5 Z"/></g>
<g><path style="opacity:1" fill="#f5851e" d="M 270.5,210.5 C 270.5,220.5 270.5,230.5 270.5,240.5C 260.5,240.5 250.5,240.5 240.5,240.5C 240.5,230.5 240.5,220.5 240.5,210.5C 250.5,210.5 260.5,210.5 270.5,210.5 Z"/></g>
<g><path style="opacity:0.97" fill="#000000" d="M 420.5,210.5 C 430.833,210.5 441.167,210.5 451.5,210.5C 451.5,220.5 451.5,230.5 451.5,240.5C 441.167,240.5 430.833,240.5 420.5,240.5C 420.5,230.5 420.5,220.5 420.5,210.5 Z"/></g>
<g><path style="opacity:0.941" fill="#ffc905" d="M -0.5,239.5 C 9.83333,239.5 20.1667,239.5 30.5,239.5C 30.5,250.167 30.5,260.833 30.5,271.5C 20.1667,271.5 9.83333,271.5 -0.5,271.5C -0.5,260.833 -0.5,250.167 -0.5,239.5 Z"/></g>
<g><path style="opacity:0.919" fill="#000000" d="M 209.5,239.5 C 209.5,250.167 209.5,260.833 209.5,271.5C 199.5,271.5 189.5,271.5 179.5,271.5C 179.5,260.833 179.5,250.167 179.5,239.5C 189.5,239.5 199.5,239.5 209.5,239.5 Z"/></g>
<g><path style="opacity:0.919" fill="#010000" d="M 301.5,239.5 C 311.5,239.5 321.5,239.5 331.5,239.5C 331.5,250.167 331.5,260.833 331.5,271.5C 321.5,271.5 311.5,271.5 301.5,271.5C 301.5,281.5 301.5,291.5 301.5,301.5C 291.5,301.5 281.5,301.5 271.5,301.5C 271.5,311.5 271.5,321.5 271.5,331.5C 260.833,331.5 250.167,331.5 239.5,331.5C 239.5,321.5 239.5,311.5 239.5,301.5C 250.014,301.828 260.347,301.494 270.5,300.5C 270.5,290.5 270.5,280.5 270.5,270.5C 280.5,270.5 290.5,270.5 300.5,270.5C 301.494,260.347 301.828,250.014 301.5,239.5 Z"/></g>
<g><path style="opacity:0.941" fill="#ffc905" d="M 511.5,239.5 C 511.5,250.167 511.5,260.833 511.5,271.5C 501.167,271.5 490.833,271.5 480.5,271.5C 480.5,260.833 480.5,250.167 480.5,239.5C 490.833,239.5 501.167,239.5 511.5,239.5 Z"/></g>
<g><path style="opacity:0.972" fill="#54459b" d="M 119.5,239.5 C 129.833,239.5 140.167,239.5 150.5,239.5C 150.5,250.167 150.5,260.833 150.5,271.5C 140.167,271.5 129.833,271.5 119.5,271.5C 119.5,260.833 119.5,250.167 119.5,239.5 Z"/></g>
<g><path style="opacity:1" fill="#fec905" d="M 240.5,240.5 C 250.5,240.5 260.5,240.5 270.5,240.5C 270.5,250.5 270.5,260.5 270.5,270.5C 260.5,270.5 250.5,270.5 240.5,270.5C 230.5,270.5 220.5,270.5 210.5,270.5C 210.5,260.5 210.5,250.5 210.5,240.5C 220.5,240.5 230.5,240.5 240.5,240.5 Z"/></g>
<g><path style="opacity:1" fill="#f5851e" d="M 270.5,240.5 C 280.5,240.5 290.5,240.5 300.5,240.5C 300.5,250.5 300.5,260.5 300.5,270.5C 290.5,270.5 280.5,270.5 270.5,270.5C 270.5,260.5 270.5,250.5 270.5,240.5 Z"/></g>
<g><path style="opacity:0.972" fill="#54459b" d="M 360.5,239.5 C 370.833,239.5 381.167,239.5 391.5,239.5C 391.5,250.167 391.5,260.833 391.5,271.5C 381.167,271.5 370.833,271.5 360.5,271.5C 360.5,260.833 360.5,250.167 360.5,239.5 Z"/></g>
<g><path style="opacity:1" fill="#f5851e" d="M 240.5,270.5 C 250.5,270.5 260.5,270.5 270.5,270.5C 270.5,280.5 270.5,290.5 270.5,300.5C 260.5,300.5 250.5,300.5 240.5,300.5C 240.5,290.5 240.5,280.5 240.5,270.5 Z"/></g>
<g><path style="opacity:0.946" fill="#000000" d="M 209.5,271.5 C 219.5,271.5 229.5,271.5 239.5,271.5C 239.5,281.5 239.5,291.5 239.5,301.5C 239.5,291.5 239.5,281.5 239.5,271.5C 229.5,271.5 219.5,271.5 209.5,271.5 Z"/></g>
<g><path style="opacity:1" fill="#271b04" d="M 239.5,209.5 C 250.014,209.172 260.347,209.506 270.5,210.5C 260.5,210.5 250.5,210.5 240.5,210.5C 240.5,220.5 240.5,230.5 240.5,240.5C 230.5,240.5 220.5,240.5 210.5,240.5C 210.5,250.5 210.5,260.5 210.5,270.5C 220.5,270.5 230.5,270.5 240.5,270.5C 240.5,280.5 240.5,290.5 240.5,300.5C 250.5,300.5 260.5,300.5 270.5,300.5C 260.347,301.494 250.014,301.828 239.5,301.5C 239.5,291.5 239.5,281.5 239.5,271.5C 229.5,271.5 219.5,271.5 209.5,271.5C 209.5,260.833 209.5,250.167 209.5,239.5C 219.5,239.5 229.5,239.5 239.5,239.5C 239.5,229.5 239.5,219.5 239.5,209.5 Z"/></g>
<g><path style="opacity:0.966" fill="#000000" d="M 90.5,330.5 C 90.1667,330.5 89.8333,330.5 89.5,330.5C 79.5,330.5 69.5,330.5 59.5,330.5C 59.5,320.5 59.5,310.5 59.5,300.5C 69.8333,300.5 80.1667,300.5 90.5,300.5C 90.5,310.5 90.5,320.5 90.5,330.5 Z"/></g>
<g><path style="opacity:0.966" fill="#000000" d="M 451.5,330.5 C 441.5,330.5 431.5,330.5 421.5,330.5C 421.167,330.5 420.833,330.5 420.5,330.5C 420.5,320.5 420.5,310.5 420.5,300.5C 430.833,300.5 441.167,300.5 451.5,300.5C 451.5,310.5 451.5,320.5 451.5,330.5 Z"/></g>
<g><path style="opacity:0.987" fill="#000000" d="M 59.5,330.5 C 59.5,340.5 59.5,350.5 59.5,360.5C 49.5,360.5 39.5,360.5 29.5,360.5C 29.5,350.5 29.5,340.5 29.5,330.5C 39.5,330.5 49.5,330.5 59.5,330.5 Z"/></g>
<g><path style="opacity:0.973" fill="#000000" d="M 90.5,330.5 C 100.5,330.5 110.5,330.5 120.5,330.5C 120.5,340.5 120.5,350.5 120.5,360.5C 120.5,350.5 120.5,340.5 120.5,330.5C 110.5,330.5 100.5,330.5 90.5,330.5 Z"/></g>
<g><path style="opacity:0.946" fill="#53459b" d="M 179.5,330.5 C 189.833,330.5 200.167,330.5 210.5,330.5C 210.5,340.833 210.5,351.167 210.5,361.5C 200.167,361.5 189.833,361.5 179.5,361.5C 179.5,351.167 179.5,340.833 179.5,330.5 Z"/></g>
<g><path style="opacity:0.946" fill="#53459b" d="M 300.5,330.5 C 310.833,330.5 321.167,330.5 331.5,330.5C 331.5,340.833 331.5,351.167 331.5,361.5C 321.167,361.5 310.833,361.5 300.5,361.5C 300.5,351.167 300.5,340.833 300.5,330.5 Z"/></g>
<g><path style="opacity:0.973" fill="#000000" d="M 420.5,330.5 C 420.5,340.5 420.5,350.5 420.5,360.5C 410.5,360.5 400.5,360.5 390.5,360.5C 390.5,350.5 390.5,340.5 390.5,330.5C 400.5,330.5 410.5,330.5 420.5,330.5 Z"/></g>
<g><path style="opacity:1" fill="#53469b" d="M 421.5,330.5 C 431.5,330.5 441.5,330.5 451.5,330.5C 451.5,340.5 451.5,350.5 451.5,360.5C 441.5,360.5 431.5,360.5 421.5,360.5C 421.5,350.5 421.5,340.5 421.5,330.5 Z"/></g>
<g><path style="opacity:0.987" fill="#000000" d="M 451.5,330.5 C 461.5,330.5 471.5,330.5 481.5,330.5C 481.5,340.5 481.5,350.5 481.5,360.5C 471.5,360.5 461.5,360.5 451.5,360.5C 451.5,350.5 451.5,340.5 451.5,330.5 Z"/></g>
<g><path style="opacity:1" fill="#bb4798" d="M 59.5,330.5 C 69.5,330.5 79.5,330.5 89.5,330.5C 89.5,340.5 89.5,350.5 89.5,360.5C 79.5,360.5 69.5,360.5 59.5,360.5C 59.5,350.5 59.5,340.5 59.5,330.5 Z"/></g>
<g><path style="opacity:0.972" fill="#000000" d="M -0.5,360.5 C 9.5,360.5 19.5,360.5 29.5,360.5C 29.5,370.833 29.5,381.167 29.5,391.5C 19.5,391.5 9.5,391.5 -0.5,391.5C -0.5,381.167 -0.5,370.833 -0.5,360.5 Z"/></g>
<g><path style="opacity:0.959" fill="#000000" d="M 120.5,360.5 C 130.5,360.5 140.5,360.5 150.5,360.5C 150.5,370.833 150.5,381.167 150.5,391.5C 140.5,391.5 130.5,391.5 120.5,391.5C 120.5,381.167 120.5,370.833 120.5,360.5 Z"/></g>
<g><path style="opacity:0.928" fill="#000000" d="M 301.5,420.5 C 291.167,420.5 280.833,420.5 270.5,420.5C 270.5,410.5 270.5,400.5 270.5,390.5C 260.5,390.5 250.5,390.5 240.5,390.5C 240.5,400.5 240.5,410.5 240.5,420.5C 230.167,420.5 219.833,420.5 209.5,420.5C 209.5,410.5 209.5,400.5 209.5,390.5C 219.5,390.5 229.5,390.5 239.5,390.5C 239.5,380.5 239.5,370.5 239.5,360.5C 250.167,360.5 260.833,360.5 271.5,360.5C 271.5,370.5 271.5,380.5 271.5,390.5C 281.5,390.5 291.5,390.5 301.5,390.5C 301.5,400.5 301.5,410.5 301.5,420.5 Z"/></g>
<g><path style="opacity:0.959" fill="#000000" d="M 390.5,360.5 C 390.5,370.833 390.5,381.167 390.5,391.5C 380.5,391.5 370.5,391.5 360.5,391.5C 360.5,381.167 360.5,370.833 360.5,360.5C 370.5,360.5 380.5,360.5 390.5,360.5 Z"/></g>
<g><path style="opacity:0.972" fill="#000000" d="M 481.5,360.5 C 491.5,360.5 501.5,360.5 511.5,360.5C 511.5,370.833 511.5,381.167 511.5,391.5C 501.5,391.5 491.5,391.5 481.5,391.5C 481.5,381.167 481.5,370.833 481.5,360.5 Z"/></g>
<g><path style="opacity:1" fill="#a8516d" d="M 29.5,360.5 C 39.5,360.5 49.5,360.5 59.5,360.5C 50.0144,361.494 40.3478,361.827 30.5,361.5C 30.5,371.167 30.5,380.833 30.5,390.5C 40.1667,390.5 49.8333,390.5 59.5,390.5C 59.5,390.833 59.5,391.167 59.5,391.5C 49.5,391.5 39.5,391.5 29.5,391.5C 29.5,381.167 29.5,370.833 29.5,360.5 Z"/></g>
<g><path style="opacity:1" fill="#ea7098" d="M 59.5,360.5 C 69.5,360.5 79.5,360.5 89.5,360.5C 89.5,360.833 89.5,361.167 89.5,361.5C 89.5,371.167 89.5,380.833 89.5,390.5C 79.5,390.5 69.5,390.5 59.5,390.5C 49.8333,390.5 40.1667,390.5 30.5,390.5C 30.5,380.833 30.5,371.167 30.5,361.5C 40.3478,361.827 50.0144,361.494 59.5,360.5 Z"/></g>
<g><path style="opacity:1" fill="#bc4799" d="M 89.5,361.5 C 99.5,361.5 109.5,361.5 119.5,361.5C 119.5,371.167 119.5,380.833 119.5,390.5C 109.5,390.5 99.5,390.5 89.5,390.5C 89.5,380.833 89.5,371.167 89.5,361.5 Z"/></g>
<g><path style="opacity:1" fill="#903c6c" d="M 89.5,330.5 C 89.8333,330.5 90.1667,330.5 90.5,330.5C 90.5,340.5 90.5,350.5 90.5,360.5C 100.5,360.5 110.5,360.5 120.5,360.5C 120.5,370.833 120.5,381.167 120.5,391.5C 110.5,391.5 100.5,391.5 90.5,391.5C 90.5,401.5 90.5,411.5 90.5,421.5C 90.1667,421.5 89.8333,421.5 89.5,421.5C 89.5,411.167 89.5,400.833 89.5,390.5C 99.5,390.5 109.5,390.5 119.5,390.5C 119.5,380.833 119.5,371.167 119.5,361.5C 109.5,361.5 99.5,361.5 89.5,361.5C 89.5,361.167 89.5,360.833 89.5,360.5C 89.5,350.5 89.5,340.5 89.5,330.5 Z"/></g>
<g><path style="opacity:1" fill="#38336c" d="M 420.5,330.5 C 420.833,330.5 421.167,330.5 421.5,330.5C 421.5,340.5 421.5,350.5 421.5,360.5C 411.681,361.494 401.681,361.827 391.5,361.5C 391.5,371.167 391.5,380.833 391.5,390.5C 401.348,390.173 411.014,390.506 420.5,391.5C 410.5,391.5 400.5,391.5 390.5,391.5C 390.5,381.167 390.5,370.833 390.5,360.5C 400.5,360.5 410.5,360.5 420.5,360.5C 420.5,350.5 420.5,340.5 420.5,330.5 Z"/></g>
<g><path style="opacity:1" fill="#6d66d3" d="M 421.5,360.5 C 431.5,360.5 441.5,360.5 451.5,360.5C 451.5,370.833 451.5,381.167 451.5,391.5C 441.167,391.5 430.833,391.5 420.5,391.5C 411.014,390.506 401.348,390.173 391.5,390.5C 391.5,380.833 391.5,371.167 391.5,361.5C 401.681,361.827 411.681,361.494 421.5,360.5 Z"/></g>
<g><path style="opacity:1" fill="#53459b" d="M 451.5,360.5 C 461.5,360.5 471.5,360.5 481.5,360.5C 481.5,370.833 481.5,381.167 481.5,391.5C 471.5,391.5 461.5,391.5 451.5,391.5C 451.5,381.167 451.5,370.833 451.5,360.5 Z"/></g>
<g><path style="opacity:0.984" fill="#000000" d="M 29.5,391.5 C 39.5,391.5 49.5,391.5 59.5,391.5C 59.5,401.5 59.5,411.5 59.5,421.5C 49.5,421.5 39.5,421.5 29.5,421.5C 29.5,411.5 29.5,401.5 29.5,391.5 Z"/></g>
<g><path style="opacity:1" fill="#bc4798" d="M 59.5,390.5 C 69.5,390.5 79.5,390.5 89.5,390.5C 89.5,400.833 89.5,411.167 89.5,421.5C 79.5,421.5 69.5,421.5 59.5,421.5C 59.5,411.5 59.5,401.5 59.5,391.5C 59.5,391.167 59.5,390.833 59.5,390.5 Z"/></g>
<g><path style="opacity:0.971" fill="#000000" d="M 120.5,391.5 C 120.5,401.5 120.5,411.5 120.5,421.5C 110.5,421.5 100.5,421.5 90.5,421.5C 90.5,411.5 90.5,401.5 90.5,391.5C 100.5,391.5 110.5,391.5 120.5,391.5 Z"/></g>
<g><path style="opacity:1" fill="#0c73c7" d="M 270.5,420.5 C 270.5,420.833 270.5,421.167 270.5,421.5C 260.5,421.5 250.5,421.5 240.5,421.5C 240.5,421.167 240.5,420.833 240.5,420.5C 240.5,410.5 240.5,400.5 240.5,390.5C 250.5,390.5 260.5,390.5 270.5,390.5C 270.5,400.5 270.5,410.5 270.5,420.5 Z"/></g>
<g><path style="opacity:0.971" fill="#000000" d="M 390.5,391.5 C 400.5,391.5 410.5,391.5 420.5,391.5C 420.5,401.5 420.5,411.5 420.5,421.5C 410.5,421.5 400.5,421.5 390.5,421.5C 390.5,411.5 390.5,401.5 390.5,391.5 Z"/></g>
<g><path style="opacity:1" fill="#53459a" d="M 420.5,391.5 C 430.833,391.5 441.167,391.5 451.5,391.5C 451.5,401.5 451.5,411.5 451.5,421.5C 441.167,421.5 430.833,421.5 420.5,421.5C 420.5,411.5 420.5,401.5 420.5,391.5 Z"/></g>
<g><path style="opacity:0.984" fill="#000000" d="M 451.5,391.5 C 461.5,391.5 471.5,391.5 481.5,391.5C 481.5,401.5 481.5,411.5 481.5,421.5C 471.5,421.5 461.5,421.5 451.5,421.5C 451.5,411.5 451.5,401.5 451.5,391.5 Z"/></g>
<g><path style="opacity:0.949" fill="#000000" d="M 209.5,420.5 C 209.5,430.833 209.5,441.167 209.5,451.5C 199.5,451.5 189.5,451.5 179.5,451.5C 179.5,441.167 179.5,430.833 179.5,420.5C 189.5,420.5 199.5,420.5 209.5,420.5 Z"/></g>
<g><path style="opacity:0.949" fill="#000000" d="M 301.5,420.5 C 311.5,420.5 321.5,420.5 331.5,420.5C 331.5,430.833 331.5,441.167 331.5,451.5C 321.5,451.5 311.5,451.5 301.5,451.5C 301.5,441.167 301.5,430.833 301.5,420.5 Z"/></g>
<g><path style="opacity:0.964" fill="#000000" d="M 59.5,421.5 C 69.5,421.5 79.5,421.5 89.5,421.5C 89.8333,421.5 90.1667,421.5 90.5,421.5C 90.5,431.5 90.5,441.5 90.5,451.5C 80.1667,451.5 69.8333,451.5 59.5,451.5C 59.5,441.5 59.5,431.5 59.5,421.5 Z"/></g>
<g><path style="opacity:1" fill="#012734" d="M 209.5,420.5 C 219.833,420.5 230.167,420.5 240.5,420.5C 240.5,420.833 240.5,421.167 240.5,421.5C 230.5,421.5 220.5,421.5 210.5,421.5C 210.5,431.5 210.5,441.5 210.5,451.5C 210.167,451.5 209.833,451.5 209.5,451.5C 209.5,441.167 209.5,430.833 209.5,420.5 Z"/></g>
<g><path style="opacity:1" fill="#04a5de" d="M 240.5,421.5 C 250.5,421.5 260.5,421.5 270.5,421.5C 270.5,431.5 270.5,441.5 270.5,451.5C 260.5,451.5 250.5,451.5 240.5,451.5C 230.5,451.5 220.5,451.5 210.5,451.5C 210.5,441.5 210.5,431.5 210.5,421.5C 220.5,421.5 230.5,421.5 240.5,421.5 Z"/></g>
<g><path style="opacity:1" fill="#0c74c8" d="M 270.5,421.5 C 280.5,421.5 290.5,421.5 300.5,421.5C 300.5,431.5 300.5,441.5 300.5,451.5C 290.5,451.5 280.5,451.5 270.5,451.5C 270.5,441.5 270.5,431.5 270.5,421.5 Z"/></g>
<g><path style="opacity:1" fill="#033855" d="M 270.5,421.5 C 270.5,421.167 270.5,420.833 270.5,420.5C 280.833,420.5 291.167,420.5 301.5,420.5C 301.5,430.833 301.5,441.167 301.5,451.5C 301.167,451.5 300.833,451.5 300.5,451.5C 300.5,441.5 300.5,431.5 300.5,421.5C 290.5,421.5 280.5,421.5 270.5,421.5 Z"/></g>
<g><path style="opacity:0.964" fill="#000000" d="M 420.5,421.5 C 430.833,421.5 441.167,421.5 451.5,421.5C 451.5,431.5 451.5,441.5 451.5,451.5C 441.167,451.5 430.833,451.5 420.5,451.5C 420.5,441.5 420.5,431.5 420.5,421.5 Z"/></g>
<g><path style="opacity:0.957" fill="#fec905" d="M 119.5,450.5 C 129.833,450.5 140.167,450.5 150.5,450.5C 150.5,460.833 150.5,471.167 150.5,481.5C 140.167,481.5 129.833,481.5 119.5,481.5C 119.5,471.167 119.5,460.833 119.5,450.5 Z"/></g>
<g><path style="opacity:0.957" fill="#fec905" d="M 360.5,450.5 C 370.833,450.5 381.167,450.5 391.5,450.5C 391.5,460.833 391.5,471.167 391.5,481.5C 381.167,481.5 370.833,481.5 360.5,481.5C 360.5,471.167 360.5,460.833 360.5,450.5 Z"/></g>
<g><path style="opacity:0.941" fill="#000000" d="M 209.5,451.5 C 209.833,451.5 210.167,451.5 210.5,451.5C 220.5,451.5 230.5,451.5 240.5,451.5C 240.5,461.5 240.5,471.5 240.5,481.5C 250.5,481.5 260.5,481.5 270.5,481.5C 270.5,471.5 270.5,461.5 270.5,451.5C 280.5,451.5 290.5,451.5 300.5,451.5C 300.833,451.5 301.167,451.5 301.5,451.5C 301.5,461.5 301.5,471.5 301.5,481.5C 291.5,481.5 281.5,481.5 271.5,481.5C 271.5,491.5 271.5,501.5 271.5,511.5C 260.833,511.5 250.167,511.5 239.5,511.5C 239.5,501.5 239.5,491.5 239.5,481.5C 229.5,481.5 219.5,481.5 209.5,481.5C 209.5,471.5 209.5,461.5 209.5,451.5 Z"/></g>
<g><path style="opacity:1" fill="#0c74c8" d="M 240.5,451.5 C 250.5,451.5 260.5,451.5 270.5,451.5C 270.5,461.5 270.5,471.5 270.5,481.5C 260.5,481.5 250.5,481.5 240.5,481.5C 240.5,471.5 240.5,461.5 240.5,451.5 Z"/></g>
</svg>
