<svg viewBox="0 0 64 64" fill="none" xmlns="http://www.w3.org/2000/svg" preserveAspectRatio="xMidYMid meet">
<path fill-rule="evenodd" clip-rule="evenodd" d="M14.2198 0H49.7754L49.7754 7.11042H56.8865V14.2215H49.7754L49.7754 7.11111H14.2198V14.2215H7.10872V7.11042H14.2198V0ZM14.2198 56.8896H49.7754V64.0007H14.2198V56.8896ZM63.9976 14.2231H56.8865V49.7769H49.7754V56.888H56.8865V49.7787H63.9976V14.2231ZM-0.00256348 14.2231H7.10855V49.7787H-0.00256348V14.2231ZM28.4419 39.1104H21.3308V46.2215H28.4417V49.7776H35.5528V42.6665H28.4419V39.1104ZM35.5532 39.1104H42.6643V46.2215H35.5532V39.1104ZM14.2198 49.7769H7.10874V56.888H14.2198V49.7769ZM46.2203 21.3335H39.1092V28.4446H46.2203V21.3335ZM17.7754 21.3335H24.8865V28.4446H17.7754V21.3335Z" fill="black"/>
</svg>
